PathFileType	4	(X/Y/Z)	C:/Users/beibeiliu/ov580/test_trc/User1\sequence.31_training_dense_right.trc
DataRate	CameraRate	NumFrames	NumMarkers	Units	OrigDataRate	OrigDataStartFrame	OrigNumFrames
120	120	24	19	mm	120	225	256
Frame#	Time	ThumbCMC			ThumbMCP			ThumbIP			ThumbTip			IndexMCP			IndexPIP			IndexTip			MiddleMCP			MiddlePIP			MiddleTip			RingMCP			RingPIP			RingTip			PinkyMCP			PinkyPIP			PinkyTip			BackHand1			BackHand2			BackHand3	
		X0	Y0	Z0	X1	Y1	Z1	X2	Y2	Z2	X3	Y3	Z3	X4	Y4	Z4	X5	Y5	Z5	X6	Y6	Z6	X7	Y7	Z7	X8	Y8	Z8	X9	Y9	Z9	X10	Y10	Z10	X11	Y11	Z11	X12	Y12	Z12	X13	Y13	Z13	X14	Y14	Z14	X15	Y15	Z15	X16	Y16	Z16	X17	Y17	Z17	X18	Y18	Z18	
224	1.86667	217.434	-3.66349	30.5042	188.956	-5.70959	7.93723	171.957	-4.27047	-10.9249	150.759	-7.53752	-29.151	241.221	-30.8438	-45.7944	235.954	-35.2525	-74.364	217.01	-42.8611	-98.7483	253.213	-61.7009	-43.2278	248.051	-77.1173	-75.2154	229.323	-84.4252	-99.1661	245.831	-87.024	-27.2824	238.712	-100.055	-60.4224	215.412	-103.948	-79.5323	227.752	-107.177	-7.16662	215.825	-118.79	-26.9811	198.46	-124.732	-44.8897	250.987	-70.395	19.6937	253.131	-61.5753	52.5648	253.207	-32.5179	28.3266	
225	1.875	212.601	-3.61081	29.2497	183.016	-4.45887	12.8024	165.67	-3.74631	-9.51426	145.032	-6.62525	-25.4988	238.77	-29.7543	-45.4301	233.861	-29.108	-75.8337	222.331	-42.5031	-98.3631	251.234	-60.3895	-44.7976	249.467	-69.0851	-75.5857	238.248	-82.6218	-99.4893	248.061	-85.6647	-32.9069	242.703	-93.1439	-60.1004	226.887	-108.124	-79.5332	230.729	-105.194	-11.2407	220.225	-122.459	-22.9972	205.848	-131.152	-47.6921	249.439	-64.3608	17.4616	254.045	-60.8095	52.189	250.452	-27.7393	28.3739	
226	1.88333	210.476	-5.8089	33.3017	177.971	-4.46237	10.7015	160.823	-3.56014	-5.2794	139.071	-4.84933	-23.3761	234.281	-25.0585	-43.0984	233.466	-31.5925	-73.5736	226.804	-40.4131	-96.9283	251.82	-61.3032	-45.4902	251.708	-66.6122	-75.5297	245.01	-82.3728	-100.433	249.077	-82.0239	-34.4255	247.489	-92.717	-58.1813	235.799	-103.564	-80.769	233.158	-103.732	-7.13598	225.355	-118.747	-24.413	218.985	-132.513	-44.2651	253.101	-66.0659	17.7914	253.423	-54.8126	53.0292	246.215	-26.5356	26.5826	
227	1.89167	208.043	-6.2207	32.5611	174.844	-4.70988	14.4407	157.346	-6.85161	-6.1238	138.606	-7.80982	-17.9356	234.473	-28.106	-47.4347	232.593	-30.2748	-76.56	228.36	-38.7038	-99.0808	252.349	-58.8223	-44.948	253.761	-64.1208	-73.8759	251.403	-78.5155	-99.399	250.146	-80.1734	-34.3035	251.014	-89.6219	-60.1053	243.99	-105.6	-84.0834	234.763	-104.576	-9.66818	227.96	-120.96	-25.7243	223.205	-136.089	-42.5087	251.875	-63.1419	18.0751	254.183	-53.0617	53.1575	246.187	-27.3866	29.0034	
228	1.9	202.473	-3.00025	27.5936	172.929	-5.0375	15.7972	154.927	-8.81603	-5.49571	133.11	-9.48421	-18.6206	232.312	-28.2991	-44.7363	233.376	-29.8395	-71.1575	230.521	-35.1715	-101.052	251.246	-57.2227	-41.119	255.208	-63.3618	-71.1977	255.542	-73.5687	-100.406	249.407	-76.919	-30.8337	253.597	-92.2816	-59.8721	249.734	-103.013	-84.402	236.728	-105.759	-5.5703	232.915	-118.401	-20.9503	230.434	-133.379	-44.1568	252.098	-59.492	20.2154	254.01	-50.6383	51.4048	243.63	-22.3165	23.4287	
229	1.90833	201.134	-4.05166	30.1625	172.141	-8.83867	17.8438	151.629	-8.56243	-2.20556	131.154	-10.3883	-12.8707	232.017	-27.2048	-45.1534	233.287	-30.1916	-71.1271	233.895	-39.0462	-100.844	249.399	-52.0124	-42.3185	257.219	-63.7623	-73.737	257.61	-73.8962	-100.813	251.66	-77.0862	-34.7741	254.924	-90.3562	-60.1728	252.572	-102.235	-78.8845	238.049	-107.481	-9.26799	232.61	-119.118	-26.2503	231.254	-135.694	-43.693	252.058	-62.193	16.7223	253.703	-49.4317	53.2225	242.67	-21.7915	24.8345	
230	1.91667	202.999	-8.65544	27.98	170.779	-12.4977	14.4336	150.563	-11.9739	-0.631957	129.639	-14.3431	-16.0447	231.316	-25.9726	-44.7214	232.733	-31.5856	-69.4229	232.608	-35.8816	-95.9363	251.315	-55.3784	-40.7354	256.89	-61.4906	-72.939	257.552	-71.8606	-96.735	250.233	-75.8299	-31.8038	254.507	-91.6841	-59.8421	250.569	-102.879	-83.3622	238.102	-106.016	-9.85271	233.213	-121.925	-23.2931	231.092	-133.72	-39.3414	252.485	-61.9606	21.5635	255.496	-52.6461	54.4496	240.831	-22.4213	26.3736	
231	1.925	200.489	-5.4701	29.7359	168.793	-10.5949	14.7976	148.83	-10.0456	0.458232	129.54	-16.2909	-14.9423	230.375	-24.3205	-44.6426	231.981	-28.139	-74.6498	233.857	-37.8283	-98.4256	251.316	-57.0194	-41.3179	256.935	-63.615	-72.9774	258.209	-76.1735	-95.9444	249.686	-76.9092	-32.0012	252.973	-89.8468	-57.3643	247.985	-105.885	-78.5985	239.082	-107.101	-5.19473	231.889	-123.398	-22.2157	230.128	-133.901	-42.1333	252.137	-60.3953	20.1353	256.248	-52.5039	50.7422	243.075	-25.9119	24.9507	
232	1.93333	203.291	-8.34748	31.7023	171.221	-14.6674	16.5683	148.846	-14.2988	-3.75267	127.069	-18.9476	-15.825	232.393	-27.243	-47.0754	232.299	-31.3567	-73.8446	232.292	-38.6578	-97.2726	252.747	-57.9047	-44.089	256.867	-64.7395	-70.1952	256.32	-81.1565	-101.429	251.796	-81.71	-32.5064	249.852	-92.6221	-62.1627	240.966	-106.015	-82.4499	238.288	-106.057	-8.57677	230.517	-122.128	-24.4706	225.174	-132.388	-40.4171	253.045	-63.5052	17.5905	256.003	-53.6394	55.1728	241.607	-21.6907	26.3329	
233	1.94167	203.166	-8.81424	30.7032	170.308	-13.7505	14.9741	149.361	-16.7353	-5.46965	127.695	-21.9485	-15.4813	231.344	-27.3824	-43.4876	232.975	-31.4921	-75.434	229.09	-40.4235	-96.1578	251.914	-53.914	-42.4782	255.307	-64.8507	-71.6793	250.242	-81.0018	-101.917	250.651	-80.8426	-31.4773	249	-96.1512	-57.881	233.924	-111.157	-80.1266	236.872	-105.916	-4.94605	227.207	-124.747	-23.3212	219.432	-136.222	-39.0313	253.581	-62.4913	22.3714	256.569	-52.3039	50.5533	243.839	-26.5174	26.7466	
234	1.95	203.169	-9.74345	31.4607	171.582	-17.6486	12.2465	149.754	-19.9365	-6.34743	132.237	-30.4622	-19.6604	235.179	-30.3616	-46.5801	233.86	-34.3467	-74.5289	224.237	-39.8852	-100.052	252.674	-57.693	-39.6966	255.013	-66.4805	-70.3594	243.138	-84.9183	-99.9376	250.525	-80.7165	-30.8788	247.013	-97.2129	-57.6828	224.074	-110.52	-78.9669	235.9	-109.542	-4.32971	226.348	-120.456	-21.853	212.979	-131.79	-40.0188	254.572	-62.694	20.4212	256.373	-52.7763	51.6851	243.825	-27.5165	25.7916	
235	1.95833	203.563	-10.0614	27.6629	172.075	-16.6655	13.8618	150.681	-20.9544	-7.7133	131.54	-32.0673	-20.4019	233.325	-27.0715	-44.4259	232.343	-30.7797	-75.5494	222.861	-45.4029	-95.721	253.144	-57.2374	-40.7968	252.904	-70.2278	-73.69	238.073	-86.0705	-95.3271	249.499	-82.1782	-27.9424	244.146	-99.3118	-55.936	219.778	-110.926	-71.1331	235.978	-104.899	-5.87262	220.507	-124.522	-21.3009	205.109	-130.421	-36.6009	253.667	-59.2383	21.3284	256.403	-52.1681	52.378	245.644	-25.9396	25.0873	
236	1.96667	204.132	-9.72233	28.8112	173.152	-17.4395	15.1613	154.8	-25.662	-8.62442	137.06	-39.0742	-24.3308	235.164	-29.7961	-43.2407	230.828	-31.1847	-73.9274	215.082	-43.0015	-98.5062	252.998	-58.1842	-40.3813	251.622	-68.6317	-71.5742	229.684	-90.3294	-95.3594	249.897	-84.1277	-31.1526	241.417	-99.6051	-56.622	214.698	-108.052	-67.9445	234.949	-106.725	-9.69359	219.18	-118.365	-23.2558	195.523	-123.399	-39.8777	254.289	-65.4227	21.8484	255.325	-52.4565	55.9183	245.243	-27.4278	25.1586	
237	1.975	204.403	-9.22509	29.3561	171.999	-16.9007	12.6667	156.297	-26.0509	-8.72376	140.492	-41.7673	-23.8066	235.465	-29.1221	-41.5369	231.622	-35.3638	-71.4525	211.246	-48.3947	-97.0387	254.308	-58.3031	-42.6152	248.769	-71.3391	-73.7238	223.38	-88.1717	-93.37	249.713	-82.7119	-33.465	237.499	-95.3327	-57.5882	209.607	-107.335	-64.3648	234.555	-105.694	-8.46548	215.913	-120.1	-23.2565	191.337	-116.881	-35.78	255.577	-60.6827	20.1433	257.289	-51.1001	53.2963	247.392	-25.2609	27.9705	
238	1.98333	205.603	-10.0847	34.273	175.094	-20.4591	12.9077	155.617	-26.0044	-8.68393	141.367	-43.5837	-23.9292	235.698	-29.8262	-42.1009	229.496	-30.8136	-71.5285	208.317	-45.9834	-91.6734	253.378	-57.1256	-40.896	245.515	-73.0552	-74.2116	220.42	-85.1357	-89.0498	249.101	-80.3149	-32.0865	235.614	-96.0927	-57.3386	200.729	-104.708	-60.7895	233.809	-106.585	-8.11701	216.584	-114.105	-24.3521	188.79	-111.906	-36.6772	255.601	-59.9805	22.5986	256.741	-55.2299	56.4139	247.279	-24.9146	27.0268	
239	1.99167	203.627	-10.0331	30.4514	176.282	-21.2385	13.8337	157.422	-28.8755	-7.37654	145.245	-50.4711	-27.1988	233.938	-24.7692	-41.1278	228.982	-32.5011	-71.2476	204.532	-45.9916	-89.4373	252.67	-56.4747	-40.9303	246.628	-71.1259	-71.5519	213.674	-81.6381	-87.4288	249.228	-81.6113	-34.3118	231.151	-95.4261	-58.3865	198.465	-102.541	-57.572	235.344	-103.907	-6.76435	216.161	-111.118	-24.615	184.279	-109.607	-32.2323	253.318	-60.6919	18.9984	256.544	-52.2435	52.6823	246.447	-25.5658	30.1818	
240	2	206.354	-13.326	32.579	173.077	-19.9902	10.8971	159.436	-30.6607	-8.32944	145.257	-50.8757	-25.4536	236.098	-28.3104	-44.0406	226.188	-36.3134	-74.6148	201.613	-46.1973	-85.3072	253.034	-57.6427	-42.8349	243.782	-68.2796	-72.1049	207.09	-80.0244	-84.4019	247.774	-79.1642	-33.3345	228.641	-92.0033	-59.0655	200.185	-96.7379	-57.3943	234.928	-105.419	-11.6027	215.033	-109.435	-26.8616	185.956	-103.057	-29.2793	255.326	-62.7662	23.3667	259.294	-54.8602	57.6262	248.321	-25.9046	28.0815	
241	2.00833	206.268	-12.2987	31.5551	173.449	-21.9175	8.79523	161.461	-33.5807	-12.4832	153.291	-57.4398	-28.495	234.671	-26.8878	-42.6443	227.164	-34.7643	-72.081	198.329	-45.779	-82.6422	251.753	-55.3155	-42.9215	241.243	-66.5379	-73.5646	208.693	-82.9131	-78.6169	248.501	-77.943	-34.0219	227.87	-91.9952	-58.903	199.167	-98.3814	-52.5346	236.24	-101.45	-10.7378	213.974	-108.384	-26.9256	181.61	-99.8348	-26.0746	256.599	-60.173	22.3493	256.85	-52.2541	55.1044	247.836	-25.6143	26.7445	
242	2.01667	205.416	-12.102	30.9937	176.96	-23.9907	9.75714	160.252	-33.5742	-12.8552	154.785	-56.3036	-26.4155	233.395	-22.8076	-40.3712	225.103	-33.7742	-72.0341	196.286	-49.3914	-79.7731	250.938	-54.7744	-42.1072	237.027	-65.2345	-75.0111	206.287	-80.6032	-77.0901	247.863	-76.698	-31.9667	227.787	-88.7607	-59.0174	194.84	-96.6935	-48.9998	237.106	-99.7439	-9.98951	211.342	-107.813	-27.8208	181.256	-96.4215	-26.9633	253.841	-58.6052	19.2444	257.907	-52.6071	55.9587	246.033	-23.3114	31.4591	
243	2.025	202.895	-10.0523	35.8765	174.489	-22.0448	11.2143	162.568	-34.2846	-13.4686	152.989	-55.8223	-30.2518	233.605	-24.693	-45.8549	222.326	-32.9252	-72.5094	193.915	-48.2475	-79.2975	250.005	-52.7364	-40.9347	239.498	-65.6344	-73.1466	203.28	-78.8684	-76.8958	247.09	-73.4645	-34.9916	228.319	-85.5507	-58.9676	198.039	-93.0991	-52.5604	236.188	-95.2383	-12.6684	213.19	-103.886	-29.0363	187.25	-97.2823	-27.6759	256.161	-60.6432	19.0313	256.592	-51.5939	54.0135	245.174	-21.1081	29.5355	
244	2.03333	201.527	-10.9958	37.0933	174.725	-23.8304	10.8299	160.257	-34.4788	-14.6276	150.494	-53.9031	-30.4096	231.731	-25.3986	-43.6901	220.408	-34.0525	-73.1833	189.957	-49.6589	-78.7755	248.756	-48.1934	-42.3845	237.72	-64.6481	-73.0378	201.633	-78.1152	-77.2253	249.495	-73.906	-34.8057	232.032	-88.7956	-58.4409	196.406	-94.8811	-53.0166	238.652	-97.3343	-12.0514	216.888	-104.667	-29.3899	184.812	-100.93	-29.9173	256.276	-54.7024	21.5819	256.367	-50.3577	54.9209	243.536	-20.5444	26.169	
245	2.04167	200.479	-10.3494	36.6614	172.841	-22.1768	11.5898	159.171	-30.5351	-8.73001	147.258	-49.2042	-27.0925	229.768	-23.4462	-41.341	220.791	-29.1986	-71.3681	191.843	-50.8867	-80.6231	250.654	-49.7673	-43.7836	239.628	-61.9481	-73.1643	208.293	-77.3753	-82.3013	251.283	-74.0114	-33.2639	233.03	-85.6777	-60.7565	205.577	-97.1496	-58.4166	239.229	-99.7905	-13.7239	221.363	-106.411	-28.991	192.495	-104.727	-36.8352	255.143	-55.8521	18.2303	256.344	-47.686	55.6601	240.897	-19.4912	29.4836	
246	2.05	197.082	-8.25795	34.0017	169.154	-20.2759	12.8192	154.906	-29.1035	-6.52831	141.224	-44.7167	-26.0297	227.152	-22.1264	-42.1485	218.364	-28.5085	-74.676	197.633	-46.1274	-86.9943	249.94	-47.8566	-45.3735	241.174	-62.2751	-74.9249	209.346	-77.5145	-87.5184	249.917	-66.3383	-34.5376	238.466	-85.2226	-62.5352	211.146	-98.8171	-65.6134	242.221	-95.4028	-12.1556	230.268	-106.649	-28.8127	200.315	-112.098	-44.4163	256.975	-55.1497	19.8405	256.799	-46.617	54.8952	238.872	-16.9771	29.2551	
247	2.05833	192.808	-7.736	34.7933	164.674	-19.4606	15.6077	147.833	-27.0915	-3.54943	130.524	-38.5472	-20.2932	221.72	-18.192	-42.1713	215.851	-26.5151	-74.2381	196.729	-42.602	-93.2311	245.819	-43.7515	-44.6808	241.006	-57.6941	-76.0436	218.198	-75.9961	-93.2309	251.817	-67.0477	-37.2304	243.048	-82.7097	-62.4227	218.795	-97.6328	-74.7182	246.14	-95.9661	-13.3546	234.631	-105.651	-31.4052	215.129	-117.755	-46.667	253.636	-51.8927	22.8497	253.276	-41.404	52.6529	236.936	-15.2647	26.3356	
